<svg width="33" height="33" viewBox="0 0 33 33" fill="none" xmlns="http://www.w3.org/2000/svg">
<path d="M30.7406 5.09063L26.4616 0.815625C25.9393 0.293304 25.2402 0 24.5009 0C23.7616 0 23.0625 0.289286 22.5402 0.815625L17.9317 5.41607C17.4094 5.93839 17.1161 6.64152 17.1161 7.3808C17.1161 8.12411 17.4054 8.8192 17.9317 9.34554L21.5317 12.9496C20.7116 14.8604 19.5332 16.5966 18.0603 18.0643C16.5857 19.5469 14.8621 20.7161 12.9496 21.5438L9.34955 17.9397C8.82723 17.4174 8.12813 17.1241 7.38884 17.1241C7.02419 17.1228 6.66294 17.1942 6.32626 17.3343C5.98958 17.4743 5.68423 17.6802 5.42813 17.9397L0.815625 22.5402C0.293304 23.0625 0 23.7656 0 24.5049C0 25.2482 0.289286 25.9433 0.815625 26.4696L5.09063 30.7446C5.98259 31.6366 7.21205 32.1469 8.47366 32.1469C8.73482 32.1469 8.98795 32.1268 9.24509 32.0826C14.5647 31.2067 19.8442 28.3741 24.1071 24.1152C28.3661 19.8482 31.1946 14.5688 32.0786 9.24509C32.3317 7.73438 31.8254 6.17946 30.7406 5.09063V5.09063ZM29.2299 8.76697C28.4464 13.504 25.8991 18.229 22.0621 22.0661C18.225 25.9031 13.504 28.4504 8.76697 29.2339C8.17232 29.3344 7.56161 29.1335 7.12768 28.7036L2.92902 24.5049L7.3808 20.0491L12.1942 24.8705L12.2304 24.9067L13.0982 24.5853C15.7296 23.6178 18.1192 22.0897 20.1013 20.1069C22.0834 18.1241 23.6107 15.734 24.5772 13.1022L24.8987 12.2344L20.0451 7.38482L24.4969 2.92902L28.6955 7.12768C29.1295 7.56161 29.3304 8.17232 29.2299 8.76697Z" fill="#563C77"/>
</svg>
