<svg width="36" height="36" viewBox="0 0 36 36" fill="none" xmlns="http://www.w3.org/2000/svg">
<path d="M26.0964 21.5219C25.6584 21.2969 23.4767 20.2282 23.0709 20.0835C22.6651 19.9309 22.3678 19.8585 22.0745 20.3085C21.7772 20.7545 20.9334 21.7469 20.6682 22.0483C20.4111 22.3456 20.1499 22.3818 19.712 22.1608C17.1084 20.859 15.4008 19.8384 13.6852 16.8934C13.2312 16.1099 14.1392 16.1661 14.987 14.4746C15.1316 14.1773 15.0593 13.9242 14.9468 13.6992C14.8343 13.4742 13.9504 11.2965 13.5807 10.4085C13.2231 9.5447 12.8535 9.66523 12.5843 9.64916C12.3272 9.63309 12.0339 9.63309 11.7365 9.63309C11.4392 9.63309 10.9611 9.74559 10.5553 10.1835C10.1495 10.6295 9.00439 11.7023 9.00439 13.88C9.00439 16.0576 10.5914 18.167 10.8084 18.4643C11.0334 18.7617 13.9303 23.2295 18.3781 25.1541C21.1906 26.3675 22.2914 26.4719 23.6977 26.263C24.5535 26.1344 26.3173 25.1943 26.683 24.1536C27.0486 23.117 27.0486 22.2291 26.9401 22.0443C26.8316 21.8474 26.5343 21.7349 26.0964 21.5219Z" fill="#563C77"/>
<path d="M34.602 11.025C33.694 8.86741 32.3922 6.9308 30.7328 5.26741C29.0851 3.61365 27.1289 2.29911 24.9752 1.39821C22.7654 0.470089 20.419 0 18.0002 0H17.9199C15.4851 0.0120536 13.1266 0.494196 10.9087 1.44241C8.77345 2.35254 6.83566 3.66942 5.20335 5.31964C3.56005 6.97902 2.27032 8.90759 1.37835 11.0571C0.454246 13.283 -0.0118256 15.6496 0.000227944 18.0844C0.0138615 20.8747 0.67399 23.6238 1.9288 26.1161V32.2232C1.9288 32.7134 2.12352 33.1835 2.47013 33.5301C2.81674 33.8767 3.28684 34.0714 3.77701 34.0714H9.88818C12.3804 35.3262 15.1296 35.9864 17.9199 36H18.0042C20.4109 36 22.7453 35.5339 24.9431 34.6219C27.0859 33.7317 29.0347 32.4325 30.6806 30.7969C32.34 29.1536 33.6458 27.233 34.5578 25.0915C35.506 22.8737 35.9882 20.5152 36.0002 18.0804C36.0123 15.6335 35.5382 13.2589 34.602 11.025ZM28.531 28.6232C25.7145 31.4116 21.9779 32.9464 18.0002 32.9464H17.9319C15.5092 32.9344 13.1025 32.3317 10.977 31.1987L10.6395 31.0179H4.98237V25.3607L4.80157 25.0232C3.66853 22.8978 3.06585 20.4911 3.0538 18.0683C3.03773 14.0625 4.56853 10.3018 7.37701 7.4692C10.1815 4.63661 13.9301 3.06964 17.9359 3.05357H18.0042C20.0132 3.05357 21.9618 3.4433 23.798 4.21473C25.59 4.96607 27.1971 6.04687 28.5792 7.42902C29.9574 8.80714 31.0422 10.4183 31.7935 12.2103C32.573 14.0665 32.9627 16.0353 32.9547 18.0683C32.9306 22.0701 31.3596 25.8188 28.531 28.6232Z" fill="#563C77"/>
</svg>
